:SAMPLES-PER-SECOND 30
:FULLY-SPECIFIED
:DEGREES
109
root  49.6321 37.2789 -12.4042 179.639 13.3412 -177.512
RightUpLeg  -24.1368 -11.1833 -8.85344
RightLeg  30.221 4.43546 2.54572
RightFoot  -2.25414 -0.607628 7.44109
RightToes  0.000482159 0.542163 -0.142577
Spine  28.5283 -1.71052 0.672004
Spine1  6.82004 -4.45848 10.1502
HEad  28.1086 -29.0143 1.46719
LeftShoulder1  7.40449 -12.8943 -38.9617
LeftArm  -23.8636 9.00421 -30.8043
LeftForeArm  62.6692 -63.0815 -15.9458
LeftHand  -0.25398 0.0180481 5.50724
RightShoulder  4.02857 7.55101 30.4848
RightArm  -4.71192 -7.67237 38.585
RightForeArm  4.44601 34.3484 7.43108
RightHand  -1.50201 3.93479 -18.875
LeftUpLeg  -30.6124 -11.4241 9.75544
LeftLeg  45.4778 5.46297 6.30893
LeftFoot  -7.65087 0.0658837 -0.386616
LeftToes  1.06246e-005 4.65855e-005 -8.18503e-006
110
root  50.616 37.4742 -11.6874 -179.02 10.3949 -177.862
RightUpLeg  -25.6796 -12.446 -7.23538
RightLeg  29.9243 2.46651 1.29202
RightFoot  -1.84531 -0.551437 6.47958
RightToes  0.000482159 0.542163 -0.142577
Spine  30.4552 -1.41929 0.228542
Spine1  6.68683 -4.57269 11.0616
HEad  26.8062 -27.2908 2.26697
LeftShoulder1  7.36398 -12.8631 -38.8071
LeftArm  -24.4295 8.20693 -31.7348
LeftForeArm  63.2746 -63.9634 -16.6239
LeftHand  -0.25398 0.0180481 5.50724
RightShoulder  3.9925 7.5314 30.2196
RightArm  -6.80338 -6.33996 37.9758
RightForeArm  7.25436 37.0458 8.03344
RightHand  -1.41392 3.43789 -18.7537
LeftUpLeg  -32.5877 -4.55677 6.55306
LeftLeg  44.8794 7.61548 8.45135
LeftFoot  -8.14214 0.0169132 1.04244
LeftToes  1.06246e-005 4.65855e-005 -8.18503e-006
111
root  51.4867 37.6437 -11.0323 -177.534 7.203 -178.201
RightUpLeg  -27.3691 -13.683 -5.81307
RightLeg  29.5554 0.580324 0.112991
RightFoot  -1.53701 -0.45894 5.22487
RightToes  0.000482159 0.542163 -0.142577
Spine  32.1582 -1.79553 0.341311
Spine1  6.6012 -5.03429 11.1924
HEad  25.6627 -25.376 2.83202
LeftShoulder1  7.27221 -12.8172 -38.3906
LeftArm  -24.2615 7.54603 -32.4992
LeftForeArm  63.761 -64.8423 -17.361
LeftHand  -0.25398 0.0180481 5.50724
RightShoulder  3.94348 7.44663 30.0491
RightArm  -9.47127 -5.48943 37.8708
RightForeArm  6.68174 40.5871 9.17782
RightHand  -1.65931 3.84714 -20.9135
LeftUpLeg  -34.3651 1.86791 2.31426
LeftLeg  43.6867 6.81485 7.32363
LeftFoot  -9.29646 0.0798723 -1.19211
LeftToes  1.06246e-005 4.65855e-005 -8.18503e-006
112
root  52.2517 37.7138 -10.4376 -175.706 4.05301 -178.236
RightUpLeg  -29.5667 -15.0304 -4.15275
RightLeg  29.3923 -0.867702 -0.771574
RightFoot  -1.23239 -0.364915 4.02703
RightToes  0.000482159 0.542163 -0.142577
Spine  33.3774 -2.42613 1.15329
Spine1  6.40876 -5.52691 11.222
HEad  24.6836 -23.6559 3.10301
LeftShoulder1  7.20664 -12.8323 -37.9661
LeftArm  -23.4181 6.86559 -33.1746
LeftForeArm  64.4664 -65.6427 -18.0567
LeftHand  -0.25398 0.0180481 5.50724
RightShoulder  3.87166 7.34317 29.7246
RightArm  -11.7019 -5.37818 37.9005
RightForeArm  3.62554 44.9976 10.9706
RightHand  -2.0665 4.82916 -23.5403
LeftUpLeg  -36.0574 7.36519 -2.16647
LeftLeg  42.1966 5.28703 5.50606
LeftFoot  -8.70735 0.130506 -3.48043
LeftToes  1.06246e-005 4.65855e-005 -8.18503e-006
113
root  52.9478 37.6868 -9.87723 -173.832 1.7433 -178
RightUpLeg  -32.1691 -16.0385 -2.14041
RightLeg  29.4439 -1.97828 -1.4504
RightFoot  -0.952681 -0.306191 3.29378
RightToes  0.000482159 0.542163 -0.142577
Spine  34.4052 -2.6606 1.94605
Spine1  6.25454 -5.60382 11.4298
HEad  24.2606 -22.001 2.95809
LeftShoulder1  7.1956 -12.8968 -37.7341
LeftArm  -22.2162 6.16382 -33.8123
LeftForeArm  65.6823 -66.5066 -18.8181
LeftHand  -0.25398 0.0180481 5.50724
RightShoulder  3.79984 7.27029 29.2915
RightArm  -13.2956 -5.63036 37.6766
RightForeArm  2.18339 49.7818 13.1551
RightHand  -2.184 5.16362 -24.0513
LeftUpLeg  -37.0383 11.2188 -5.89795
LeftLeg  39.8591 5.15471 4.9699
LeftFoot  -7.63204 0.0826532 -1.13071
LeftToes  1.06246e-005 4.65855e-005 -8.18503e-006
114
root  53.5747 37.6004 -9.32468 -172.125 0.317322 -177.652
RightUpLeg  -35.0106 -16.9309 0.117065
RightLeg  29.6707 -2.57342 -1.82679
RightFoot  -0.719508 -0.239551 2.52394
RightToes  0.000482159 0.542163 -0.142577
Spine  35.759 -2.60915 2.34925
Spine1  6.21772 -5.34923 11.4846
HEad  23.6155 -20.4244 2.93604
LeftShoulder1  7.19086 -12.9095 -37.6735
LeftArm  -21.1223 5.50771 -34.2433
LeftForeArm  67.2863 -67.5556 -19.8159
LeftHand  -0.25398 0.0180481 5.50724
RightShoulder  3.79049 7.34952 28.9406
RightArm  -14.4348 -5.63366 37.2545
RightForeArm  4.26048 54.2538 15.4069
RightHand  -1.8798 4.33408 -22.4903
LeftUpLeg  -37.5978 12.1254 -7.70606
LeftLeg  36.9679 6.29772 5.42506
LeftFoot  -7.72427 -0.0890154 4.3864
LeftToes  1.06246e-005 4.65855e-005 -8.18503e-006
115
root  54.1472 37.4636 -8.74483 -170.484 -1.10056 -177.261
RightUpLeg  -38.1244 -18.12 2.567
RightLeg  30.1032 -2.76129 -1.97212
RightFoot  -0.464605 -0.13403 1.37504
RightToes  0.000482159 0.542163 -0.142577
Spine  37.3318 -2.71664 2.70605
Spine1  6.00481 -5.24591 11.4648
HEad  22.1763 -18.868 3.45831
LeftShoulder1  7.15252 -12.8647 -37.5634
LeftArm  -20.4049 4.82756 -34.3054
LeftForeArm  68.9399 -68.7976 -21.169
LeftHand  -0.25398 0.0180481 5.50724
RightShoulder  3.85385 7.59795 28.7249
RightArm  -15.2473 -5.09225 36.8939
RightForeArm  8.10046 58.1237 17.6819
RightHand  -1.59146 3.42442 -21.0692
LeftUpLeg  -39.1034 9.70961 -7.18962
LeftLeg  35.2646 7.95848 6.37415
LeftFoot  -7.96535 -0.183194 7.77601
LeftToes  1.06246e-005 4.65855e-005 -8.18503e-006
116
root  54.7145 37.2667 -8.1258 -168.897 -2.93336 -176.81
RightUpLeg  -41.4192 -19.2691 5.10729
RightLeg  30.7787 -3.09839 -2.23796
RightFoot  -0.280467 -0.0329697 0.318915
RightToes  0.000482159 0.542163 -0.142577
Spine  38.7867 -2.8983 3.35104
Spine1  5.51289 -5.34296 11.6951
HEad  20.4872 -17.2084 4.08765
LeftShoulder1  7.09828 -12.9005 -37.1524
LeftArm  -19.9822 3.87595 -34.19
LeftForeArm  70.6634 -70.1333 -22.8465
LeftHand  -0.25398 0.0180481 5.50724
RightShoulder  3.9074 7.81337 28.5326
RightArm  -15.9142 -4.1524 36.6829
RightForeArm  11.0475 61.528 20.279
RightHand  -1.60393 3.32935 -21.4196
LeftUpLeg  -42.2289 6.64716 -5.458
LeftLeg  35.6461 8.72412 7.02451
LeftFoot  -6.95436 -0.231916 7.2243
LeftToes  1.06246e-005 4.65855e-005 -8.18503e-006
117
root  55.2871 37.0227 -7.50208 -167.627 -4.47166 -176.263
RightUpLeg  -44.4536 -19.7038 7.51865
RightLeg  31.5874 -3.67333 -2.68384
RightFoot  -0.359948 0.0214777 -0.249482
RightToes  0.000482159 0.542163 -0.142577
Spine  40.2591 -2.74227 4.10113
Spine1  5.17815 -5.11661 11.8537
HEad  18.7628 -15.7789 4.68713
LeftShoulder1  7.03708 -13.054 -36.4049
LeftArm  -19.6936 2.52878 -34.2405
LeftForeArm  72.8782 -71.4784 -24.762
LeftHand  -0.25398 0.0180481 5.50724
RightShoulder  3.88296 7.83163 28.2539
RightArm  -16.6826 -3.10781 36.6192
RightForeArm  12.9882 64.6319 23.4276
RightHand  -1.7644 3.65801 -22.6803
LeftUpLeg  -45.7984 5.76218 -4.07903
LeftLeg  36.8383 8.03423 6.77353
LeftFoot  -5.19371 -0.275557 5.68842
LeftToes  1.06246e-005 4.65855e-005 -8.18503e-006
118
root  55.8208 36.7553 -6.89945 -166.781 -5.10608 -175.629
RightUpLeg  -46.9812 -19.4286 9.70584
RightLeg  32.3565 -4.01054 -2.98683
RightFoot  -0.633349 0.0401707 -0.47471
RightToes  0.000482159 0.542163 -0.142577
Spine  42.0225 -2.3085 4.59873
Spine1  5.3336 -4.34031 11.2757
HEad  17.3197 -14.6555 4.97043
LeftShoulder1  6.94198 -13.1578 -35.5889
LeftArm  -19.5889 1.10598 -34.3613
LeftForeArm  75.9762 -72.9511 -27.194
LeftHand  -0.25398 0.0180481 5.50724
RightShoulder  3.8222 7.76539 27.9069
RightArm  -17.586 -2.10075 36.7869
RightForeArm  15.5665 67.4242 27.0305
RightHand  -1.85598 3.8266 -23.3993
LeftUpLeg  -48.6717 6.43228 -3.2422
LeftLeg  37.7432 7.03518 6.17638
LeftFoot  -4.00567 -0.319828 5.35223
LeftToes  1.06246e-005 4.65855e-005 -8.18503e-006
119
root  56.2769 36.4416 -6.30829 -166.183 -5.27806 -174.913
RightUpLeg  -49.317 -19.0796 11.8162
RightLeg  33.2541 -3.93078 -3.02627
RightFoot  -0.955152 0.0273013 -0.372445
RightToes  0.000482159 0.542163 -0.142577
Spine  43.9106 -2.0772 4.98673
Spine1  5.63687 -3.47545 10.0184
HEad  15.9797 -13.4223 5.21762
LeftShoulder1  6.81116 -13.1078 -34.9402
LeftArm  -19.8766 0.194632 -34.1405
LeftForeArm  80.3348 -74.7948 -31.0409
LeftHand  -0.25398 0.0180481 5.50724
RightShoulder  3.80148 7.80888 27.5841
RightArm  -18.4089 -1.1006 37.2079
RightForeArm  19.4434 69.8521 30.9417
RightHand  -1.85509 3.78912 -23.4766
LeftUpLeg  -51.216 6.83782 -2.20086
LeftLeg  38.7495 6.52545 5.96085
LeftFoot  -3.50392 -0.348474 5.39394
LeftToes  1.06246e-005 4.65855e-005 -8.18503e-006
120
root  56.6752 36.0407 -5.71662 -165.766 -5.66199 -174.193
RightUpLeg  -51.7664 -18.9801 13.8031
RightLeg  34.7128 -3.80339 -3.09112
RightFoot  -1.52258 -0.039657 0.346546
RightToes  0.000482159 0.542163 -0.142577
Spine  45.7526 -2.15123 5.46282
Spine1  5.57059 -2.97352 8.84123
HEad  14.6851 -11.8817 5.33971
LeftShoulder1  6.68066 -13.0231 -34.3702
LeftArm  -20.6332 0.0343501 -33.6039
LeftForeArm  86.5746 -76.9685 -37.3635
LeftHand  -0.25398 0.0180481 5.50724
RightShoulder  3.81655 7.94953 27.2938
RightArm  -18.9927 -0.107561 37.6918
RightForeArm  24.3439 71.9867 35.3134
RightHand  -1.85006 3.75615 -23.4955
LeftUpLeg  -53.9814 6.61792 -0.894778
LeftLeg  40.415 6.30824 6.10725
LeftFoot  -2.98688 -0.338173 4.87823
LeftToes  1.06246e-005 4.65855e-005 -8.18503e-006
